<?xml version="1.0" encoding="UTF-8" standalone="no"?>
<!DOCTYPE svg PUBLIC "-//W3C//DTD SVG 1.1//EN"
 "http://www.w3.org/Graphics/SVG/1.1/DTD/svg11.dtd">
<!-- Generated by graphviz version 2.44.0 (0)
 -->
<!-- Title: pcv::subtract Pages: 1 -->
<svg width="221pt" height="66pt"
 viewBox="0.00 0.00 221.00 66.00" xmlns="http://www.w3.org/2000/svg" xmlns:xlink="http://www.w3.org/1999/xlink">
<g id="graph0" class="graph" transform="scale(1 1) rotate(0) translate(4 62)">
<title>pcv::subtract</title>
<!-- Node1 -->
<g id="node1" class="node">
<title>Node1</title>
<g id="a_node1"><a xlink:title="Element&#45;wise subtraction: in &#45; other, with optional scaling.">
<polygon fill="#bfbfbf" stroke="black" points="140,-19.5 140,-38.5 213,-38.5 213,-19.5 140,-19.5"/>
<text text-anchor="middle" x="176.5" y="-26.5" font-family="Helvetica" font-size="10.00">pcv::subtract</text>
</a>
</g>
</g>
<!-- Node2 -->
<g id="node2" class="node">
<title>Node2</title>
<g id="a_node2"><a xlink:href="group__complex__domain__operations.html#ga67cab92dfc172ec1f057dc0f9e185ac4" target="_top" xlink:title="Phase/angle of a 2&#45;channel complex image in (&#45;π, π].">
<polygon fill="none" stroke="black" points="20,-38.5 20,-57.5 84,-57.5 84,-38.5 20,-38.5"/>
<text text-anchor="middle" x="52" y="-45.5" font-family="Helvetica" font-size="10.00">pcv::phase</text>
</a>
</g>
</g>
<!-- Node1&#45;&gt;Node2 -->
<g id="edge1" class="edge">
<title>Node1&#45;&gt;Node2</title>
<path fill="none" stroke="midnightblue" d="M129.49,-36.14C114.32,-38.49 97.81,-41.05 84.02,-43.19"/>
<polygon fill="midnightblue" stroke="midnightblue" points="130.39,-39.54 139.74,-34.55 129.32,-32.62 130.39,-39.54"/>
</g>
<!-- Node3 -->
<g id="node3" class="node">
<title>Node3</title>
<g id="a_node3"><a xlink:href="group__scalar__value__transforms.html#ga1dada47d27a6562b1bad6eb8a39495df" target="_top" xlink:title="Subtract a scalar value from all pixels.">
<polygon fill="none" stroke="black" points="0,-0.5 0,-19.5 104,-19.5 104,-0.5 0,-0.5"/>
<text text-anchor="middle" x="52" y="-7.5" font-family="Helvetica" font-size="10.00">pcv::subtract_scalar</text>
</a>
</g>
</g>
<!-- Node1&#45;&gt;Node3 -->
<g id="edge2" class="edge">
<title>Node1&#45;&gt;Node3</title>
<path fill="none" stroke="midnightblue" d="M129.76,-21.91C121.38,-20.61 112.58,-19.24 104.05,-17.92"/>
<polygon fill="midnightblue" stroke="midnightblue" points="129.32,-25.38 139.74,-23.45 130.39,-18.46 129.32,-25.38"/>
</g>
</g>
</svg>
