<?xml version="1.0" encoding="UTF-8" standalone="no"?>
<!DOCTYPE svg PUBLIC "-//W3C//DTD SVG 1.1//EN"
 "http://www.w3.org/Graphics/SVG/1.1/DTD/svg11.dtd">
<!-- Generated by graphviz version 2.44.0 (0)
 -->
<!-- Title: pcv::power_spectrum Pages: 1 -->
<svg width="224pt" height="66pt"
 viewBox="0.00 0.00 224.00 66.00" xmlns="http://www.w3.org/2000/svg" xmlns:xlink="http://www.w3.org/1999/xlink">
<g id="graph0" class="graph" transform="scale(1 1) rotate(0) translate(4 62)">
<title>pcv::power_spectrum</title>
<!-- Node1 -->
<g id="node1" class="node">
<title>Node1</title>
<g id="a_node1"><a xlink:title="Power spectrum |F|^2 for complex images, optionally log scaled.">
<polygon fill="#bfbfbf" stroke="black" points="0,-19.5 0,-38.5 109,-38.5 109,-19.5 0,-19.5"/>
<text text-anchor="middle" x="54.5" y="-26.5" font-family="Helvetica" font-size="10.00">pcv::power_spectrum</text>
</a>
</g>
</g>
<!-- Node2 -->
<g id="node2" class="node">
<title>Node2</title>
<g id="a_node2"><a xlink:href="group__scalar__value__transforms.html#gabbe5f90c2931e9c23dd99fd0a50ba004" target="_top" xlink:title="Natural logarithm of (in + 1).">
<polygon fill="none" stroke="black" points="155.5,-38.5 155.5,-57.5 205.5,-57.5 205.5,-38.5 155.5,-38.5"/>
<text text-anchor="middle" x="180.5" y="-45.5" font-family="Helvetica" font-size="10.00">pcv::log</text>
</a>
</g>
</g>
<!-- Node1&#45;&gt;Node2 -->
<g id="edge1" class="edge">
<title>Node1&#45;&gt;Node2</title>
<path fill="none" stroke="midnightblue" d="M109.17,-37.22C121.37,-39.09 134.01,-41.03 145.15,-42.74"/>
<polygon fill="midnightblue" stroke="midnightblue" points="144.9,-46.24 155.31,-44.29 145.96,-39.32 144.9,-46.24"/>
</g>
<!-- Node3 -->
<g id="node3" class="node">
<title>Node3</title>
<g id="a_node3"><a xlink:href="group__elementwise__operations.html#ga10b0303f9b7b8ba2b9803747c0ff6554" target="_top" xlink:title="Element&#45;wise multiplication with optional scale.">
<polygon fill="none" stroke="black" points="145,-0.5 145,-19.5 216,-19.5 216,-0.5 145,-0.5"/>
<text text-anchor="middle" x="180.5" y="-7.5" font-family="Helvetica" font-size="10.00">pcv::multiply</text>
</a>
</g>
</g>
<!-- Node1&#45;&gt;Node3 -->
<g id="edge2" class="edge">
<title>Node1&#45;&gt;Node3</title>
<path fill="none" stroke="midnightblue" d="M109.17,-20.78C117.73,-19.46 126.51,-18.12 134.83,-16.84"/>
<polygon fill="midnightblue" stroke="midnightblue" points="135.36,-20.3 144.72,-15.33 134.3,-13.38 135.36,-20.3"/>
</g>
</g>
</svg>
